<svg xmlns="http://www.w3.org/2000/svg" viewBox="0 0 32 32" fill="none">
  <circle cx="14" cy="14" r="5" fill="#f5c542"/>
  <g stroke="#f5c542" stroke-width="1.5" stroke-linecap="round">
    <line x1="14" y1="5" x2="14" y2="3"/>
    <line x1="14" y1="25" x2="14" y2="23"/>
    <line x1="5" y1="14" x2="3" y2="14"/>
    <line x1="25" y1="14" x2="23" y2="14"/>
    <line x1="7.6" y1="7.6" x2="6.2" y2="6.2"/>
    <line x1="21.8" y1="21.8" x2="20.4" y2="20.4"/>
    <line x1="7.6" y1="20.4" x2="6.2" y2="21.8"/>
    <line x1="21.8" y1="6.2" x2="20.4" y2="7.6"/>
  </g>
  <path d="M18 21a5 5 0 0 0-9.9-1A4 4 0 1 0 8 28h11a3.5 3.5 0 0 0 0-7h-.5" fill="#ccc" opacity="0.85"/>
</svg>
